<svg xmlns="http://www.w3.org/2000/svg" xmlns:xlink="http://www.w3.org/1999/xlink" width="122" height="57" viewBox="0 0 122 57">
  <defs>
    <clipPath id="clip-path">
      <path id="Path_333" data-name="Path 333" d="M20.328,30.317a15.3,15.3,0,0,0-4-8.187,15.478,15.478,0,0,0-1.76-1.6A10.986,10.986,0,0,0,8.818.18H3.492A3.492,3.492,0,0,0,0,3.672V18.5A3.628,3.628,0,0,0,3.627,22.13h.824c.109-.008.221-.013.331-.017s.248-.007.373-.007c.237,0,.472.008.7.024a10.549,10.549,0,0,1,9.581,8.187A10.615,10.615,0,0,1,15.7,32.65c0,.355-.018.706-.052,1.051a1.277,1.277,0,0,0,1.274,1.4h2.256a1.278,1.278,0,0,0,1.275-1.169q.053-.633.052-1.28A15.462,15.462,0,0,0,20.328,30.317ZM4.782,15.43V6.881A1.919,1.919,0,0,1,6.7,4.962H8.278c.178-.015.358-.024.54-.024s.361.008.539.024a6.205,6.205,0,0,1,5.663,6.122,6.269,6.269,0,0,1-6.272,6.264H6.7A1.918,1.918,0,0,1,4.782,15.43Z" transform="translate(0 -0.18)" fill="none"/>
    </clipPath>
    <linearGradient id="linear-gradient" x1="0.348" y1="0.833" x2="0.919" y2="-0.38" gradientUnits="objectBoundingBox">
      <stop offset="0" stop-color="#333" stop-opacity="0.812"/>
      <stop offset="0.13" stop-color="#475b3e" stop-opacity="0.6"/>
      <stop offset="0.57" stop-color="#82d15e" stop-opacity="0"/>
    </linearGradient>
  </defs>
  <g id="Group_966" data-name="Group 966" transform="translate(16133 2196)">
    <path id="Rectangle_1766" data-name="Rectangle 1766" d="M3,0H104a18,18,0,0,1,18,18V54a3,3,0,0,1-3,3H3a3,3,0,0,1-3-3V3A3,3,0,0,1,3,0Z" transform="translate(-16133 -2196)" fill="#2d394f"/>
    <g id="Group_965" data-name="Group 965" transform="translate(-16118 -2185)">
      <circle id="Ellipse_280" data-name="Ellipse 280" cx="2.706" cy="2.706" r="2.706" transform="translate(0 29.525)" fill="#fff"/>
      <path id="Path_331" data-name="Path 331" d="M20.328,30.317a15.3,15.3,0,0,0-4-8.187,15.478,15.478,0,0,0-1.76-1.6A10.986,10.986,0,0,0,8.818.18H3.492A3.492,3.492,0,0,0,0,3.672V18.5A3.628,3.628,0,0,0,3.627,22.13h.824c.109-.008.221-.013.331-.017s.248-.007.373-.007c.237,0,.472.008.7.024a10.549,10.549,0,0,1,9.581,8.187A10.615,10.615,0,0,1,15.7,32.65c0,.355-.018.706-.052,1.051a1.277,1.277,0,0,0,1.274,1.4h2.256a1.278,1.278,0,0,0,1.275-1.169q.053-.633.052-1.28A15.462,15.462,0,0,0,20.328,30.317ZM4.782,15.43V6.881A1.919,1.919,0,0,1,6.7,4.962H8.278c.178-.015.358-.024.54-.024s.361.008.539.024a6.205,6.205,0,0,1,5.663,6.122,6.269,6.269,0,0,1-6.272,6.264H6.7A1.918,1.918,0,0,1,4.782,15.43Z" transform="translate(0 -0.163)" fill="#fff"/>
      <g id="Group_964" data-name="Group 964" transform="translate(0 0.017)" clip-path="url(#clip-path)">
        <path id="Path_332" data-name="Path 332" d="M87.459,148.766c0,1.813-1.837,3.361-4.422,3.969a15.3,15.3,0,0,0-9.207-4.645c.522-2.023,3.355-3.57,6.771-3.57C84.389,144.52,87.459,146.421,87.459,148.766Z" transform="translate(-66.862 -130.898)" fill="url(#linear-gradient)"/>
      </g>
      <path id="Path_334" data-name="Path 334" d="M259.556,200.338h3.615v15.229h-3.553l-.189-2.224c-.864,1.793-3.244,2.657-4.942,2.688-4.51.031-7.846-2.749-7.846-8.094,0-5.252,3.492-8,7.939-7.97a5.59,5.59,0,0,1,4.85,2.472Zm-9.144,7.6a4.363,4.363,0,0,0,4.51,4.634c5.932,0,5.932-9.237,0-9.237A4.337,4.337,0,0,0,250.412,207.938Z" transform="translate(-223.363 -181.095)" fill="#22be74"/>
      <path id="Path_335" data-name="Path 335" d="M456,136.47V144.9c.9-1.575,3.4-2.441,5-2.441,4.449,0,7.754,2.718,7.754,7.97,0,5-3.367,7.97-7.846,7.97A5.532,5.532,0,0,1,456,155.962l-.247,2.1H452.23V136.47Zm.247,13.968a4.372,4.372,0,1,0,8.742,0,4.2,4.2,0,0,0-4.325-4.448,4.339,4.339,0,0,0-4.417,4.443Z" transform="translate(-409.55 -123.59)" fill="#22be74"/>
      <path id="Path_336" data-name="Path 336" d="M660.578,136.47V144.9c.9-1.575,3.4-2.441,5-2.441,4.448,0,7.754,2.718,7.754,7.97,0,5-3.367,7.97-7.846,7.97a5.531,5.531,0,0,1-4.907-2.441l-.247,2.1H656.81V136.47Zm.247,13.968a4.372,4.372,0,1,0,8.742,0,4.2,4.2,0,0,0-4.324-4.448,4.341,4.341,0,0,0-4.418,4.443Z" transform="translate(-594.823 -123.59)" fill="#22be74"/>
      <path id="Path_337" data-name="Path 337" d="M862.229,137.276a2.225,2.225,0,0,1-4.449,0A2.225,2.225,0,0,1,862.229,137.276Zm-4.109,4.232V156.8h3.769V141.508Z" transform="translate(-776.826 -122.327)" fill="#22be74"/>
      <path id="Path_338" data-name="Path 338" d="M941.058,136.47v21.593H937.32V136.47Z" transform="translate(-848.859 -123.59)" fill="#22be74"/>
      <path id="Path_339" data-name="Path 339" d="M255.447.46V8.241h4.846V9.883H253.67V.46Z" transform="translate(-229.728 -0.416)" fill="#fff"/>
      <path id="Path_340" data-name="Path 340" d="M334.413,32a1.769,1.769,0,0,0,1.982,1.416,2.738,2.738,0,0,0,1.777-.619l1.049,1.038a4.073,4.073,0,0,1-2.854,1.078,3.346,3.346,0,0,1-3.648-3.541,3.321,3.321,0,0,1,3.527-3.473c2.222,0,3.608,1.373,3.352,4.106Zm3.608-1.355a1.52,1.52,0,0,0-1.723-1.293,1.788,1.788,0,0,0-1.857,1.293Z" transform="translate(-301.319 -25.267)" fill="#fff"/>
      <path id="Path_341" data-name="Path 341" d="M420.767,28.405h1.575v6.637h-1.552l-.076-.974a2.525,2.525,0,0,1-2.154,1.171,3.211,3.211,0,0,1-3.419-3.527,3.231,3.231,0,0,1,3.459-3.473,2.437,2.437,0,0,1,2.114,1.077Zm-3.985,3.311a1.9,1.9,0,0,0,1.965,2.02c2.585,0,2.585-4.025,0-4.025A1.889,1.889,0,0,0,416.782,31.716Z" transform="translate(-375.961 -25.574)" fill="#fff"/>
      <path id="Path_342" data-name="Path 342" d="M507.661,28.306l.121.767a1.958,1.958,0,0,1,1.872-.944,2.544,2.544,0,0,1,1.709.632l-.74,1.432a1.639,1.639,0,0,0-1.184-.43,1.532,1.532,0,0,0-1.656,1.683v3.5H506.14V28.306Z" transform="translate(-458.373 -25.475)" fill="#fff"/>
      <path id="Path_343" data-name="Path 343" d="M572.547,35.594V32.121a1.583,1.583,0,0,0-1.6-1.777,1.749,1.749,0,0,0-1.7,1.858v3.392H567.62v-6.65h1.467l.109.9a2.988,2.988,0,0,1,2.18-1c1.562,0,2.814,1.171,2.814,3.258v3.486Z" transform="translate(-514.051 -26.127)" fill="#fff"/>
      <path id="Path_344" data-name="Path 344" d="M685.823,29.85l1.451,4.994,1.52-4.994h1.818L688.3,36.527h-1.912l-.686-1.966-.593-2.221-.592,2.221-.687,1.966h-1.911L679.59,29.85h1.832l1.521,4.994,1.44-4.994Z" transform="translate(-615.453 -27.033)" fill="#fff"/>
      <path id="Path_345" data-name="Path 345" d="M811.469.957a.969.969,0,0,1-1.938,0A.969.969,0,0,1,811.469.957ZM809.675,2.8V9.465h1.643V2.8Z" transform="translate(-733.13 0.002)" fill="#fff"/>
      <path id="Path_346" data-name="Path 346" d="M841.081,10.16v1.888h1.831v1.416h-1.844v2.862a.825.825,0,0,0,.862.944,1.88,1.88,0,0,0,.794-.2l.46,1.4a3.681,3.681,0,0,1-1.36.283,2.144,2.144,0,0,1-2.382-2.424V13.458H838.2V12.043h1.239V10.334Z" transform="translate(-759.094 -9.201)" fill="#fff"/>
      <path id="Path_347" data-name="Path 347" d="M902.761.46V4.149a2.456,2.456,0,0,1,2.076-1c1.888,0,2.719,1.279,2.719,3.231v3.5h-1.642V6.4c0-1.212-.633-1.723-1.51-1.723a1.7,1.7,0,0,0-1.642,1.818V9.883H901.12V.46Z" transform="translate(-816.076 -0.416)" fill="#fff"/>
    </g>
  </g>
</svg>
